<svg id="Calque_1" data-name="Calque 1" xmlns="http://www.w3.org/2000/svg" xmlns:xlink="http://www.w3.org/1999/xlink" viewBox="0 0 1000 1000"><defs><style>.cls-1{fill:url(#Dégradé_sans_nom_5);}.cls-2{fill:none;stroke:#fff;stroke-linecap:round;stroke-width:13px;}.cls-2,.cls-8{stroke-miterlimit:10;}.cls-3,.cls-5{fill:#3a3a3a;}.cls-3{opacity:0.13;}.cls-4{fill:#d8d8d8;}.cls-6{fill:#c1bfbf;}.cls-7{fill:#aaa;}.cls-8{fill:#4abaff;stroke:#3a3a3a;stroke-width:11px;}.cls-9{fill:#fff;}</style><linearGradient id="Dégradé_sans_nom_5" x1="0.09" y1="500.18" x2="1000.09" y2="500.18" gradientUnits="userSpaceOnUse"><stop offset="0" stop-color="#ea70ab"/><stop offset="0.09" stop-color="#e26fae"/><stop offset="0.23" stop-color="#ce6db5"/><stop offset="0.4" stop-color="#ac6ac1"/><stop offset="0.59" stop-color="#7c65d2"/><stop offset="0.8" stop-color="#405fe8"/><stop offset="1" stop-color="#0059ff"/></linearGradient></defs><title>Logo MP2I-MPI SVG</title><rect class="cls-1" x="0.09" y="0.18" width="1000" height="1000"/><line class="cls-2" x1="201.04" y1="329.98" x2="201.04" y2="462.92"/><line class="cls-2" x1="265.35" y1="388.2" x2="265.35" y2="511.65"/><line class="cls-2" x1="265.35" y1="258.71" x2="265.35" y2="324.17"/><line class="cls-2" x1="329.66" y1="299.92" x2="329.66" y2="429.28"/><path class="cls-3" d="M377.58,699.75H100.82a11.74,11.74,0,1,1,0-23.47H377.58a11.74,11.74,0,1,1,0,23.47Z"/><rect class="cls-4" x="98.67" y="456.31" width="292.81" height="175.36" rx="3.99" transform="translate(131.51 -41.75) rotate(13.28)"/><rect class="cls-4" x="139.36" y="651.35" width="155.86" height="20.69" rx="3.99" transform="translate(157.8 -32.22) rotate(13.28)"/><path class="cls-5" d="M122.15,436.17H377.5a18.73,18.73,0,0,1,18.73,18.73V611.53a0,0,0,0,1,0,0H103.42a0,0,0,0,1,0,0V454.91a18.73,18.73,0,0,1,18.73-18.73Z" transform="translate(127.01 -43.38) rotate(13.28)"/><polygon class="cls-6" points="271.44 663.84 168.6 639.57 179.12 626.7 184.72 619.83 265.86 638.98 267.8 647.63 271.44 663.84"/><polygon class="cls-7" points="267.8 647.63 179.12 626.7 184.72 619.83 265.86 638.98 267.8 647.63"/><path class="cls-8" d="M398,495.68,369.56,616.16a16.55,16.55,0,0,1-19.84,12.26L114.07,572.8A16.54,16.54,0,0,1,101.8,553l28.44-120.47a17.42,17.42,0,0,1,20.9-12.92l233.94,55.21A17.41,17.41,0,0,1,398,495.68Z"/><path class="cls-9" d="M622.54,527.69H582V464.28l-31.1,63.41H531l-31.11-63.41v63.41H459.39V393.23h45.15l36.32,73.65,36.53-73.65h45.15Z"/><path class="cls-9" d="M710.25,393.23c29.5,0,49,19.47,49,48,0,29.9-20.87,49.57-52.38,49.57H680.34v36.92H638.8V393.23Zm-9.44,65.43c9.84,0,17.66-6.43,17.66-16.26,0-9-7.82-15.45-17.66-15.45H680.34v31.71Z"/><path class="cls-9" d="M875,527.69H768l.41-.8V500.2l48.16-41.74c9.43-8.23,16.26-14.45,16.26-22.68,0-7-4.82-11.64-11.64-11.64-8,0-14.05,5-15.05,17.46l-39.34-7c1.61-27.89,22.68-44.35,53.38-44.35,30.51,0,52.38,16.46,52.38,45.76,0,18.86-10.84,29.1-26.49,42.74l-16.25,13.65H875Z"/><path class="cls-9" d="M889.46,527.69V393.23H931V527.69Z"/><path class="cls-9" d="M622.54,695.92H582V632.5l-31.1,63.42H531L499.92,632.5v63.42H459.39V561.46h45.15l36.32,73.65,36.53-73.65h45.15Z"/><path class="cls-9" d="M710.25,561.46c29.5,0,49,19.47,49,48,0,29.9-20.87,49.57-52.38,49.57H680.34v36.92H638.8V561.46Zm-9.44,65.43c9.84,0,17.66-6.43,17.66-16.26,0-9-7.82-15.45-17.66-15.45H680.34v31.71Z"/><path class="cls-9" d="M771.86,695.92V561.46H813.4V695.92Z"/></svg>